<svg id="visual" viewBox="0 0 900 450" width="900" height="450" xmlns="http://www.w3.org/2000/svg" xmlns:xlink="http://www.w3.org/1999/xlink" version="1.1"><rect x="0" y="0" width="900" height="450" fill="#0B6AB6"></rect><defs><linearGradient id="grad1_0" x1="50%" y1="0%" x2="100%" y2="100%"><stop offset="10%" stop-color="#bbcbd8" stop-opacity="1"></stop><stop offset="90%" stop-color="#bbcbd8" stop-opacity="1"></stop></linearGradient></defs><defs><linearGradient id="grad1_1" x1="50%" y1="0%" x2="100%" y2="100%"><stop offset="10%" stop-color="#bbcbd8" stop-opacity="1"></stop><stop offset="90%" stop-color="#a4bdd3" stop-opacity="1"></stop></linearGradient></defs><defs><linearGradient id="grad1_2" x1="50%" y1="0%" x2="100%" y2="100%"><stop offset="10%" stop-color="#8eb0cf" stop-opacity="1"></stop><stop offset="90%" stop-color="#a4bdd3" stop-opacity="1"></stop></linearGradient></defs><defs><linearGradient id="grad1_3" x1="50%" y1="0%" x2="100%" y2="100%"><stop offset="10%" stop-color="#8eb0cf" stop-opacity="1"></stop><stop offset="90%" stop-color="#79a2ca" stop-opacity="1"></stop></linearGradient></defs><defs><linearGradient id="grad1_4" x1="50%" y1="0%" x2="100%" y2="100%"><stop offset="10%" stop-color="#6394c5" stop-opacity="1"></stop><stop offset="90%" stop-color="#79a2ca" stop-opacity="1"></stop></linearGradient></defs><defs><linearGradient id="grad1_5" x1="50%" y1="0%" x2="100%" y2="100%"><stop offset="10%" stop-color="#6394c5" stop-opacity="1"></stop><stop offset="90%" stop-color="#4c86c0" stop-opacity="1"></stop></linearGradient></defs><defs><linearGradient id="grad1_6" x1="50%" y1="0%" x2="100%" y2="100%"><stop offset="10%" stop-color="#3378bb" stop-opacity="1"></stop><stop offset="90%" stop-color="#4c86c0" stop-opacity="1"></stop></linearGradient></defs><defs><linearGradient id="grad1_7" x1="50%" y1="0%" x2="100%" y2="100%"><stop offset="10%" stop-color="#3378bb" stop-opacity="1"></stop><stop offset="90%" stop-color="#0b6ab6" stop-opacity="1"></stop></linearGradient></defs><defs><linearGradient id="grad2_0" x1="0%" y1="0%" x2="50%" y2="100%"><stop offset="10%" stop-color="#bbcbd8" stop-opacity="1"></stop><stop offset="90%" stop-color="#bbcbd8" stop-opacity="1"></stop></linearGradient></defs><defs><linearGradient id="grad2_1" x1="0%" y1="0%" x2="50%" y2="100%"><stop offset="10%" stop-color="#a4bdd3" stop-opacity="1"></stop><stop offset="90%" stop-color="#bbcbd8" stop-opacity="1"></stop></linearGradient></defs><defs><linearGradient id="grad2_2" x1="0%" y1="0%" x2="50%" y2="100%"><stop offset="10%" stop-color="#a4bdd3" stop-opacity="1"></stop><stop offset="90%" stop-color="#8eb0cf" stop-opacity="1"></stop></linearGradient></defs><defs><linearGradient id="grad2_3" x1="0%" y1="0%" x2="50%" y2="100%"><stop offset="10%" stop-color="#79a2ca" stop-opacity="1"></stop><stop offset="90%" stop-color="#8eb0cf" stop-opacity="1"></stop></linearGradient></defs><defs><linearGradient id="grad2_4" x1="0%" y1="0%" x2="50%" y2="100%"><stop offset="10%" stop-color="#79a2ca" stop-opacity="1"></stop><stop offset="90%" stop-color="#6394c5" stop-opacity="1"></stop></linearGradient></defs><defs><linearGradient id="grad2_5" x1="0%" y1="0%" x2="50%" y2="100%"><stop offset="10%" stop-color="#4c86c0" stop-opacity="1"></stop><stop offset="90%" stop-color="#6394c5" stop-opacity="1"></stop></linearGradient></defs><defs><linearGradient id="grad2_6" x1="0%" y1="0%" x2="50%" y2="100%"><stop offset="10%" stop-color="#4c86c0" stop-opacity="1"></stop><stop offset="90%" stop-color="#3378bb" stop-opacity="1"></stop></linearGradient></defs><defs><linearGradient id="grad2_7" x1="0%" y1="0%" x2="50%" y2="100%"><stop offset="10%" stop-color="#0b6ab6" stop-opacity="1"></stop><stop offset="90%" stop-color="#3378bb" stop-opacity="1"></stop></linearGradient></defs><g transform="translate(900, 0)"><path d="M0 450C-63.1 412 -126.2 374 -197 341.2C-267.8 308.5 -346.3 281 -389.7 225C-433.2 169 -441.6 84.5 -450 0L0 0Z" fill="#2371b9"></path><path d="M0 393.8C-55.2 360.5 -110.4 327.2 -172.4 298.6C-234.3 269.9 -303 245.9 -341 196.9C-379 147.9 -386.4 73.9 -393.7 0L0 0Z" fill="#407fbe"></path><path d="M0 337.5C-47.3 309 -94.7 280.5 -147.7 255.9C-200.8 231.3 -259.7 210.7 -292.3 168.8C-324.9 126.8 -331.2 63.4 -337.5 0L0 0Z" fill="#588dc3"></path><path d="M0 281.3C-39.4 257.5 -78.9 233.7 -123.1 213.3C-167.4 192.8 -216.4 175.6 -243.6 140.6C-270.7 105.6 -276 52.8 -281.2 0L0 0Z" fill="#6e9bc8"></path><path d="M0 225C-31.6 206 -63.1 187 -98.5 170.6C-133.9 154.2 -173.1 140.5 -194.9 112.5C-216.6 84.5 -220.8 42.3 -225 0L0 0Z" fill="#83a9cc"></path><path d="M0 168.8C-23.7 154.5 -47.3 140.2 -73.9 128C-100.4 115.7 -129.8 105.4 -146.1 84.4C-162.4 63.4 -165.6 31.7 -168.7 0L0 0Z" fill="#99b7d1"></path><path d="M0 112.5C-15.8 103 -31.6 93.5 -49.2 85.3C-66.9 77.1 -86.6 70.2 -97.4 56.3C-108.3 42.3 -110.4 21.1 -112.5 0L0 0Z" fill="#b0c4d6"></path><path d="M0 56.3C-7.9 51.5 -15.8 46.7 -24.6 42.7C-33.5 38.6 -43.3 35.1 -48.7 28.1C-54.1 21.1 -55.2 10.6 -56.2 0L0 0Z" fill="#bbcbd8"></path></g><g transform="translate(0, 450)"><path d="M0 -450C95.1 -447.7 190.3 -445.4 225 -389.7C259.7 -334 234.1 -224.9 261.5 -151C289 -77.1 369.5 -38.6 450 0L0 0Z" fill="#2371b9"></path><path d="M0 -393.7C83.2 -391.7 166.5 -389.7 196.9 -341C227.3 -292.2 204.8 -196.7 228.8 -132.1C252.9 -67.5 323.3 -33.8 393.8 0L0 0Z" fill="#407fbe"></path><path d="M0 -337.5C71.3 -335.8 142.7 -334.1 168.7 -292.3C194.8 -250.5 175.6 -168.6 196.2 -113.3C216.7 -57.9 277.1 -28.9 337.5 0L0 0Z" fill="#588dc3"></path><path d="M0 -281.2C59.5 -279.8 118.9 -278.4 140.6 -243.6C162.3 -208.7 146.3 -140.5 163.5 -94.4C180.6 -48.2 230.9 -24.1 281.3 0L0 0Z" fill="#6e9bc8"></path><path d="M0 -225C47.6 -223.9 95.1 -222.7 112.5 -194.9C129.9 -167 117.1 -112.4 130.8 -75.5C144.5 -38.6 184.7 -19.3 225 0L0 0Z" fill="#83a9cc"></path><path d="M0 -168.7C35.7 -167.9 71.3 -167 84.4 -146.1C97.4 -125.2 87.8 -84.3 98.1 -56.6C108.4 -28.9 138.6 -14.5 168.8 0L0 0Z" fill="#99b7d1"></path><path d="M0 -112.5C23.8 -111.9 47.6 -111.4 56.2 -97.4C64.9 -83.5 58.5 -56.2 65.4 -37.8C72.2 -19.3 92.4 -9.6 112.5 0L0 0Z" fill="#b0c4d6"></path><path d="M0 -56.2C11.9 -56 23.8 -55.7 28.1 -48.7C32.5 -41.7 29.3 -28.1 32.7 -18.9C36.1 -9.6 46.2 -4.8 56.3 0L0 0Z" fill="#bbcbd8"></path></g></svg>