<svg id="visual" viewBox="0 0 900 450" width="900" height="450" xmlns="http://www.w3.org/2000/svg" xmlns:xlink="http://www.w3.org/1999/xlink" version="1.1"><rect x="0" y="0" width="900" height="450" fill="#0B6AB6"></rect><defs><linearGradient id="grad1_0" x1="50%" y1="100%" x2="100%" y2="0%"><stop offset="10%" stop-color="#bbcbd8" stop-opacity="1"></stop><stop offset="90%" stop-color="#bbcbd8" stop-opacity="1"></stop></linearGradient></defs><defs><linearGradient id="grad1_1" x1="50%" y1="100%" x2="100%" y2="0%"><stop offset="10%" stop-color="#bbcbd8" stop-opacity="1"></stop><stop offset="90%" stop-color="#a4bdd3" stop-opacity="1"></stop></linearGradient></defs><defs><linearGradient id="grad1_2" x1="50%" y1="100%" x2="100%" y2="0%"><stop offset="10%" stop-color="#8eb0cf" stop-opacity="1"></stop><stop offset="90%" stop-color="#a4bdd3" stop-opacity="1"></stop></linearGradient></defs><defs><linearGradient id="grad1_3" x1="50%" y1="100%" x2="100%" y2="0%"><stop offset="10%" stop-color="#8eb0cf" stop-opacity="1"></stop><stop offset="90%" stop-color="#79a2ca" stop-opacity="1"></stop></linearGradient></defs><defs><linearGradient id="grad1_4" x1="50%" y1="100%" x2="100%" y2="0%"><stop offset="10%" stop-color="#6394c5" stop-opacity="1"></stop><stop offset="90%" stop-color="#79a2ca" stop-opacity="1"></stop></linearGradient></defs><defs><linearGradient id="grad1_5" x1="50%" y1="100%" x2="100%" y2="0%"><stop offset="10%" stop-color="#6394c5" stop-opacity="1"></stop><stop offset="90%" stop-color="#4c86c0" stop-opacity="1"></stop></linearGradient></defs><defs><linearGradient id="grad1_6" x1="50%" y1="100%" x2="100%" y2="0%"><stop offset="10%" stop-color="#3378bb" stop-opacity="1"></stop><stop offset="90%" stop-color="#4c86c0" stop-opacity="1"></stop></linearGradient></defs><defs><linearGradient id="grad1_7" x1="50%" y1="100%" x2="100%" y2="0%"><stop offset="10%" stop-color="#3378bb" stop-opacity="1"></stop><stop offset="90%" stop-color="#0b6ab6" stop-opacity="1"></stop></linearGradient></defs><defs><linearGradient id="grad2_0" x1="0%" y1="100%" x2="50%" y2="0%"><stop offset="10%" stop-color="#bbcbd8" stop-opacity="1"></stop><stop offset="90%" stop-color="#bbcbd8" stop-opacity="1"></stop></linearGradient></defs><defs><linearGradient id="grad2_1" x1="0%" y1="100%" x2="50%" y2="0%"><stop offset="10%" stop-color="#a4bdd3" stop-opacity="1"></stop><stop offset="90%" stop-color="#bbcbd8" stop-opacity="1"></stop></linearGradient></defs><defs><linearGradient id="grad2_2" x1="0%" y1="100%" x2="50%" y2="0%"><stop offset="10%" stop-color="#a4bdd3" stop-opacity="1"></stop><stop offset="90%" stop-color="#8eb0cf" stop-opacity="1"></stop></linearGradient></defs><defs><linearGradient id="grad2_3" x1="0%" y1="100%" x2="50%" y2="0%"><stop offset="10%" stop-color="#79a2ca" stop-opacity="1"></stop><stop offset="90%" stop-color="#8eb0cf" stop-opacity="1"></stop></linearGradient></defs><defs><linearGradient id="grad2_4" x1="0%" y1="100%" x2="50%" y2="0%"><stop offset="10%" stop-color="#79a2ca" stop-opacity="1"></stop><stop offset="90%" stop-color="#6394c5" stop-opacity="1"></stop></linearGradient></defs><defs><linearGradient id="grad2_5" x1="0%" y1="100%" x2="50%" y2="0%"><stop offset="10%" stop-color="#4c86c0" stop-opacity="1"></stop><stop offset="90%" stop-color="#6394c5" stop-opacity="1"></stop></linearGradient></defs><defs><linearGradient id="grad2_6" x1="0%" y1="100%" x2="50%" y2="0%"><stop offset="10%" stop-color="#4c86c0" stop-opacity="1"></stop><stop offset="90%" stop-color="#3378bb" stop-opacity="1"></stop></linearGradient></defs><defs><linearGradient id="grad2_7" x1="0%" y1="100%" x2="50%" y2="0%"><stop offset="10%" stop-color="#0b6ab6" stop-opacity="1"></stop><stop offset="90%" stop-color="#3378bb" stop-opacity="1"></stop></linearGradient></defs><g transform="translate(900, 450)"><path d="M-450 0C-412 -63.1 -374 -126.2 -341.2 -197C-308.5 -267.8 -281 -346.3 -225 -389.7C-169 -433.2 -84.5 -441.6 0 -450L0 0Z" fill="#2371b9"></path><path d="M-393.7 0C-360.5 -55.2 -327.2 -110.4 -298.6 -172.4C-269.9 -234.3 -245.9 -303 -196.9 -341C-147.9 -379 -73.9 -386.4 0 -393.7L0 0Z" fill="#407fbe"></path><path d="M-337.5 0C-309 -47.3 -280.5 -94.7 -255.9 -147.8C-231.3 -200.8 -210.7 -259.7 -168.8 -292.3C-126.8 -324.9 -63.4 -331.2 0 -337.5L0 0Z" fill="#588dc3"></path><path d="M-281.2 0C-257.5 -39.4 -233.7 -78.9 -213.3 -123.1C-192.8 -167.4 -175.6 -216.4 -140.6 -243.6C-105.6 -270.7 -52.8 -276 0 -281.2L0 0Z" fill="#6e9bc8"></path><path d="M-225 0C-206 -31.6 -187 -63.1 -170.6 -98.5C-154.2 -133.9 -140.5 -173.1 -112.5 -194.9C-84.5 -216.6 -42.3 -220.8 0 -225L0 0Z" fill="#83a9cc"></path><path d="M-168.7 0C-154.5 -23.7 -140.2 -47.3 -128 -73.9C-115.7 -100.4 -105.4 -129.8 -84.4 -146.1C-63.4 -162.4 -31.7 -165.6 0 -168.7L0 0Z" fill="#99b7d1"></path><path d="M-112.5 0C-103 -15.8 -93.5 -31.6 -85.3 -49.3C-77.1 -66.9 -70.2 -86.6 -56.3 -97.4C-42.3 -108.3 -21.1 -110.4 0 -112.5L0 0Z" fill="#b0c4d6"></path><path d="M-56.2 0C-51.5 -7.9 -46.7 -15.8 -42.7 -24.6C-38.6 -33.5 -35.1 -43.3 -28.1 -48.7C-21.1 -54.1 -10.6 -55.2 0 -56.2L0 0Z" fill="#bbcbd8"></path></g><g transform="translate(0, 0)"><path d="M450 0C447.7 95.1 445.4 190.3 389.7 225C334 259.7 224.9 234.1 151 261.5C77.1 289 38.6 369.5 0 450L0 0Z" fill="#2371b9"></path><path d="M393.8 0C391.7 83.2 389.7 166.5 341 196.9C292.2 227.3 196.7 204.8 132.1 228.8C67.5 252.9 33.8 323.3 0 393.8L0 0Z" fill="#407fbe"></path><path d="M337.5 0C335.8 71.3 334.1 142.7 292.3 168.7C250.5 194.8 168.6 175.6 113.3 196.2C57.9 216.7 28.9 277.1 0 337.5L0 0Z" fill="#588dc3"></path><path d="M281.3 0C279.8 59.5 278.4 118.9 243.6 140.6C208.7 162.3 140.5 146.3 94.4 163.5C48.2 180.6 24.1 230.9 0 281.3L0 0Z" fill="#6e9bc8"></path><path d="M225 0C223.9 47.6 222.7 95.1 194.9 112.5C167 129.9 112.4 117.1 75.5 130.8C38.6 144.5 19.3 184.7 0 225L0 0Z" fill="#83a9cc"></path><path d="M168.8 0C167.9 35.7 167 71.3 146.1 84.4C125.2 97.4 84.3 87.8 56.6 98.1C28.9 108.4 14.5 138.6 0 168.8L0 0Z" fill="#99b7d1"></path><path d="M112.5 0C111.9 23.8 111.4 47.6 97.4 56.2C83.5 64.9 56.2 58.5 37.8 65.4C19.3 72.2 9.6 92.4 0 112.5L0 0Z" fill="#b0c4d6"></path><path d="M56.3 0C56 11.9 55.7 23.8 48.7 28.1C41.7 32.5 28.1 29.3 18.9 32.7C9.6 36.1 4.8 46.2 0 56.3L0 0Z" fill="#bbcbd8"></path></g></svg>